<?xml version="1.0" encoding="UTF-8"?>
<!DOCTYPE svg PUBLIC "-//W3C//DTD SVG 1.1//EN" "http://www.w3.org/Graphics/SVG/1.1/DTD/svg11.dtd">
<svg xmlns="http://www.w3.org/2000/svg" version="1.1" width="329px" height="348px" style="shape-rendering:geometricPrecision; text-rendering:geometricPrecision; image-rendering:optimizeQuality; fill-rule:evenodd; clip-rule:evenodd" xmlns:xlink="http://www.w3.org/1999/xlink">
<g><path style="opacity:1" fill="#333" d="M 147.5,9.5 C 169.426,6.26225 187.926,12.5956 203,28.5C 208.8,38.3663 211.8,49.0329 212,60.5C 212.667,97.8333 212.667,135.167 212,172.5C 204.997,175.379 197.83,177.879 190.5,180C 208.164,180.5 225.83,180.667 243.5,180.5C 243.138,189.892 239.971,198.226 234,205.5C 225.906,215.96 215.406,222.46 202.5,225C 211.541,233.579 217.041,244.079 219,256.5C 224.066,293.552 209.566,319.385 175.5,334C 161.579,338.171 147.579,338.504 133.5,335C 118.305,328.441 111.472,316.941 113,300.5C 117.934,286.45 127.434,281.617 141.5,286C 152.045,293.517 154.211,303.017 148,314.5C 143.559,319.303 138.059,321.803 131.5,322C 154.496,328.586 169.33,320.42 176,297.5C 177.97,286.384 175.97,276.051 170,266.5C 165.2,260.698 160.033,255.198 154.5,250C 142.718,241.218 131.884,231.385 122,220.5C 111.139,205.539 107.139,188.873 110,170.5C 112.491,157.518 118.158,146.185 127,136.5C 138.304,126.197 149.304,115.53 160,104.5C 164.595,94.1106 161.428,87.444 150.5,84.5C 136.413,88.6956 122.413,93.1956 108.5,98C 97.4572,100.311 89.4572,96.4774 84.5,86.5C 116.828,73.5416 132.994,49.5416 133,14.5C 137.698,12.1017 142.532,10.435 147.5,9.5 Z M 138.5,58.5 C 144.644,59.4684 146.311,62.635 143.5,68C 136.922,70.7568 134.089,68.5901 135,61.5C 136.145,60.3636 137.312,59.3636 138.5,58.5 Z"/></g>
</svg>
